<svg width="16" height="16" viewBox="0 0 16 16" fill="none" xmlns="http://www.w3.org/2000/svg">
<path fill-rule="evenodd" clip-rule="evenodd" d="M15.2374 1.35435C15.2716 1.26868 15.28 1.17483 15.2615 1.08444C15.243 0.994046 15.1983 0.911083 15.133 0.845835C15.0678 0.780586 14.9848 0.735922 14.8944 0.71738C14.804 0.698837 14.7102 0.707231 14.6245 0.741522L0.909509 6.22772H0.908566L0.482417 6.39742C0.401704 6.42962 0.33146 6.4835 0.279446 6.55311C0.227431 6.62272 0.19567 6.70535 0.187671 6.79188C0.179671 6.87841 0.195745 6.96547 0.234117 7.04344C0.272488 7.1214 0.331664 7.18725 0.405107 7.23369L0.791658 7.47882L0.792601 7.48071L5.50192 10.477L8.49816 15.1863L8.50005 15.1882L8.74518 15.5747C8.79178 15.6479 8.85766 15.7068 8.93556 15.7449C9.01347 15.783 9.10039 15.7989 9.18675 15.7908C9.27312 15.7827 9.35557 15.751 9.42504 15.699C9.49451 15.6471 9.54831 15.577 9.58051 15.4965L15.2374 1.35435ZM13.5092 3.13625L13.9532 2.02563L12.8426 2.46969L5.77722 9.53509L6.09589 9.73779C6.15437 9.77493 6.20394 9.8245 6.24108 9.88298L6.44379 10.2017L13.5092 3.13625Z" fill="white"/>
</svg>
