<svg width="24" height="24" viewBox="0 0 24 24" fill="none" xmlns="http://www.w3.org/2000/svg">
<path d="M22.6875 15.4871L14.6625 2.57461C14.025 1.71211 13.05 1.22461 12 1.22461C10.9125 1.22461 9.93753 1.71211 9.33753 2.57461L1.31253 15.4871C0.562527 16.4996 0.450027 17.8121 1.01253 18.9371C1.57503 20.0621 2.70003 20.7746 3.97503 20.7746H20.025C21.3 20.7746 22.425 20.0621 22.9875 18.9371C23.55 17.8496 23.4375 16.4996 22.6875 15.4871ZM21.4875 18.1871C21.1875 18.7496 20.6625 19.0871 20.025 19.0871H3.97503C3.33753 19.0871 2.81253 18.7496 2.51253 18.1871C2.25003 17.6246 2.28753 16.9871 2.66253 16.4996L10.6875 3.58711C10.9875 3.17461 11.475 2.91211 12 2.91211C12.525 2.91211 13.0125 3.13711 13.3125 3.58711L21.3375 16.4996C21.7125 16.9871 21.75 17.6246 21.4875 18.1871Z" fill="#E10E0E"/>
<path d="M12 8.19922C11.55 8.19922 11.1375 8.57422 11.1375 9.06172V13.1492C11.1375 13.5992 11.5125 14.0117 12 14.0117C12.4875 14.0117 12.8625 13.6367 12.8625 13.1492V9.02422C12.8625 8.57422 12.45 8.19922 12 8.19922Z" fill="#E10E0E"/>
<path d="M12 15C11.55 15 11.1375 15.375 11.1375 15.8625V16.05C11.1375 16.5 11.5125 16.9125 12 16.9125C12.4875 16.9125 12.8625 16.5375 12.8625 16.05V15.825C12.8625 15.375 12.45 15 12 15Z" fill="#E10E0E"/>
</svg>
