<svg width="16" height="16" viewBox="0 0 16 16" fill="none" xmlns="http://www.w3.org/2000/svg">
<path d="M15.6868 8.25047C15.6868 10.2509 14.8922 12.1693 13.4777 13.5838C12.0632 14.9983 10.1448 15.7929 8.14439 15.7929C6.144 15.7929 4.22555 14.9983 2.81106 13.5838C1.39658 12.1693 0.601929 10.2509 0.601929 8.25047C0.601929 6.25008 1.39658 4.33163 2.81106 2.91714C4.22555 1.50266 6.144 0.708008 8.14439 0.708008C10.1448 0.708008 12.0632 1.50266 13.4777 2.91714C14.8922 4.33163 15.6868 6.25008 15.6868 8.25047ZM5.64972 5.08829C5.5612 4.99977 5.44115 4.95005 5.31597 4.95005C5.19078 4.95005 5.07073 4.99977 4.98221 5.08829C4.89369 5.17681 4.84397 5.29686 4.84397 5.42204C4.84397 5.54723 4.89369 5.66728 4.98221 5.7558L7.47782 8.25047L4.98221 10.7451C4.93838 10.789 4.90361 10.841 4.87989 10.8983C4.85617 10.9555 4.84397 11.0169 4.84397 11.0789C4.84397 11.1409 4.85617 11.2022 4.87989 11.2595C4.90361 11.3168 4.93838 11.3688 4.98221 11.4126C5.07073 11.5012 5.19078 11.5509 5.31597 11.5509C5.37795 11.5509 5.43933 11.5387 5.49659 11.515C5.55386 11.4912 5.60589 11.4565 5.64972 11.4126L8.14439 8.91703L10.6391 11.4126C10.6829 11.4565 10.7349 11.4912 10.7922 11.515C10.8494 11.5387 10.9108 11.5509 10.9728 11.5509C11.0348 11.5509 11.0962 11.5387 11.1534 11.515C11.2107 11.4912 11.2627 11.4565 11.3066 11.4126C11.3504 11.3688 11.3852 11.3168 11.4089 11.2595C11.4326 11.2022 11.4448 11.1409 11.4448 11.0789C11.4448 11.0169 11.4326 10.9555 11.4089 10.8983C11.3852 10.841 11.3504 10.789 11.3066 10.7451L8.81095 8.25047L11.3066 5.7558C11.3504 5.71197 11.3852 5.65994 11.4089 5.60267C11.4326 5.54541 11.4448 5.48403 11.4448 5.42204C11.4448 5.36006 11.4326 5.29868 11.4089 5.24142C11.3852 5.18415 11.3504 5.13212 11.3066 5.08829C11.2627 5.04446 11.2107 5.00969 11.1534 4.98597C11.0962 4.96225 11.0348 4.95005 10.9728 4.95005C10.9108 4.95005 10.8494 4.96225 10.7922 4.98597C10.7349 5.00969 10.6829 5.04446 10.6391 5.08829L8.14439 7.5839L5.64972 5.08829Z" fill="white"/>
</svg>
