<svg width="16" height="17" viewBox="0 0 16 17" fill="none" xmlns="http://www.w3.org/2000/svg">
<g clip-path="url(#clip0_809_1456)">
<path d="M0.657805 10.2913C0.782829 10.2913 0.902732 10.341 0.991138 10.4294C1.07954 10.5178 1.12921 10.6377 1.12921 10.7627V13.1197C1.12921 13.3698 1.22854 13.6096 1.40535 13.7864C1.58216 13.9632 1.82197 14.0625 2.07202 14.0625H13.3857C13.6358 14.0625 13.8756 13.9632 14.0524 13.7864C14.2292 13.6096 14.3285 13.3698 14.3285 13.1197V10.7627C14.3285 10.6377 14.3782 10.5178 14.4666 10.4294C14.555 10.341 14.6749 10.2913 14.7999 10.2913C14.9249 10.2913 15.0448 10.341 15.1332 10.4294C15.2217 10.5178 15.2713 10.6377 15.2713 10.7627V13.1197C15.2713 13.6198 15.0727 14.0994 14.719 14.4531C14.3654 14.8067 13.8858 15.0054 13.3857 15.0054H2.07202C1.57192 15.0054 1.09231 14.8067 0.738685 14.4531C0.385064 14.0994 0.186401 13.6198 0.186401 13.1197V10.7627C0.186401 10.6377 0.236067 10.5178 0.324472 10.4294C0.412878 10.341 0.532781 10.2913 0.657805 10.2913Z" fill="white"/>
<path d="M7.39511 12.1336C7.4389 12.1775 7.49092 12.2123 7.54819 12.2361C7.60546 12.2598 7.66685 12.2721 7.72886 12.2721C7.79087 12.2721 7.85226 12.2598 7.90953 12.2361C7.9668 12.2123 8.01882 12.1775 8.06261 12.1336L10.891 9.30514C10.9796 9.21662 11.0293 9.09657 11.0293 8.97139C11.0293 8.8462 10.9796 8.72615 10.891 8.63763C10.8025 8.54911 10.6825 8.49939 10.5573 8.49939C10.4321 8.49939 10.312 8.54911 10.2235 8.63763L8.20026 10.6618V2.37173C8.20026 2.24671 8.1506 2.12681 8.06219 2.0384C7.97379 1.95 7.85388 1.90033 7.72886 1.90033C7.60384 1.90033 7.48393 1.95 7.39553 2.0384C7.30712 2.12681 7.25746 2.24671 7.25746 2.37173V10.6618L5.23419 8.63763C5.14567 8.54911 5.02562 8.49939 4.90044 8.49939C4.77526 8.49939 4.6552 8.54911 4.56668 8.63763C4.47817 8.72615 4.42844 8.8462 4.42844 8.97139C4.42844 9.09657 4.47817 9.21662 4.56668 9.30514L7.39511 12.1336Z" fill="white"/>
</g>
<defs>
<clipPath id="clip0_809_1456">
<rect width="15.0849" height="15.0849" fill="white" transform="translate(0.186401 0.95752)"/>
</clipPath>
</defs>
</svg>
