<svg width="16" height="16" viewBox="0 0 16 16" fill="none" xmlns="http://www.w3.org/2000/svg">
<path d="M7.82151 15.2929C9.8219 15.2929 11.7403 14.4983 13.1548 13.0838C14.5693 11.6693 15.364 9.75085 15.364 7.75047C15.364 5.75008 14.5693 3.83163 13.1548 2.41714C11.7403 1.00266 9.8219 0.208008 7.82151 0.208008C5.82113 0.208008 3.90267 1.00266 2.48819 2.41714C1.0737 3.83163 0.279053 5.75008 0.279053 7.75047C0.279053 9.75085 1.0737 11.6693 2.48819 13.0838C3.90267 14.4983 5.82113 15.2929 7.82151 15.2929ZM8.69832 6.41922L7.75551 10.8551C7.68952 11.1757 7.78286 11.3576 8.04213 11.3576C8.22503 11.3576 8.50128 11.2917 8.68889 11.1257L8.60593 11.5179C8.33534 11.8441 7.73854 12.0817 7.22471 12.0817C6.56192 12.0817 6.28002 11.6839 6.46293 10.8382L7.15872 7.5685C7.21906 7.29226 7.16437 7.19232 6.88813 7.12538L6.46293 7.04902L6.54024 6.68981L8.69926 6.41922H8.69832ZM7.82151 5.39345C7.57146 5.39345 7.33166 5.29412 7.15485 5.11731C6.97804 4.9405 6.8787 4.70069 6.8787 4.45064C6.8787 4.20059 6.97804 3.96079 7.15485 3.78398C7.33166 3.60716 7.57146 3.50783 7.82151 3.50783C8.07156 3.50783 8.31137 3.60716 8.48818 3.78398C8.66499 3.96079 8.76432 4.20059 8.76432 4.45064C8.76432 4.70069 8.66499 4.9405 8.48818 5.11731C8.31137 5.29412 8.07156 5.39345 7.82151 5.39345Z" fill="#3758F9"/>
</svg>
