<svg width="16" height="16" viewBox="0 0 16 16" fill="none" xmlns="http://www.w3.org/2000/svg">
<g clip-path="url(#clip0_853_7131)">
<path d="M7.7289 0.708008L9.30245 1.52259L11.0542 1.78847L11.848 3.37238L13.1086 4.61689L12.8201 6.36485L13.1086 8.11282L11.848 9.35732L11.0542 10.9412L9.30245 11.2071L7.7289 12.0217L6.15536 11.2071L4.40362 10.9412L3.60978 9.35732L2.34924 8.11282L2.63774 6.36485L2.34924 4.61689L3.60978 3.37238L4.40362 1.78847L6.15536 1.52259L7.7289 0.708008Z" fill="white"/>
<path d="M3.95767 11.8275V15.7929L7.7289 14.8501L11.5001 15.7929V11.8275L9.59755 12.116L7.7289 13.0833L5.86026 12.116L3.95767 11.8275Z" fill="white"/>
</g>
<defs>
<clipPath id="clip0_853_7131">
<rect width="15.0849" height="15.0849" fill="white" transform="translate(0.186401 0.708008)"/>
</clipPath>
</defs>
</svg>
