<svg width="17" height="17" viewBox="0 0 17 17" fill="none" xmlns="http://www.w3.org/2000/svg">
<path d="M9.45008 8.49961L16.6938 1.25586C16.961 0.988672 16.961 0.573047 16.6938 0.305859C16.4266 0.0386719 16.011 0.0386719 15.7438 0.305859L8.50008 7.54961L1.25633 0.305859C0.989145 0.0386719 0.57352 0.0386719 0.306332 0.305859C0.0391449 0.573047 0.0391449 0.988672 0.306332 1.25586L7.55008 8.49961L0.306332 15.7434C0.0391449 16.0105 0.0391449 16.4262 0.306332 16.6934C0.425082 16.8121 0.603207 16.9012 0.781332 16.9012C0.959457 16.9012 1.13758 16.8418 1.25633 16.6934L8.50008 9.44961L15.7438 16.6934C15.8626 16.8121 16.0407 16.9012 16.2188 16.9012C16.397 16.9012 16.5751 16.8418 16.6938 16.6934C16.961 16.4262 16.961 16.0105 16.6938 15.7434L9.45008 8.49961Z" fill="#6B7280"/>
</svg>
