<svg width="17" height="17" viewBox="0 0 17 17" fill="none" xmlns="http://www.w3.org/2000/svg">
<g clip-path="url(#clip0_809_1406)">
<path d="M16.0255 2.84326C16.0255 2.34316 15.8268 1.86355 15.4732 1.50993C15.1196 1.1563 14.64 0.957642 14.1399 0.957642H2.82617C2.32607 0.957642 1.84646 1.1563 1.49284 1.50993C1.13921 1.86355 0.940552 2.34316 0.940552 2.84326L0.940552 10.3857C0.940552 10.8858 1.13921 11.3654 1.49284 11.719C1.84646 12.0727 2.32607 12.2713 2.82617 12.2713H11.8639C12.1139 12.2714 12.3537 12.3707 12.5305 12.5476L15.2203 15.2374C15.2862 15.3034 15.3702 15.3485 15.4616 15.3667C15.5531 15.385 15.6479 15.3758 15.7341 15.3401C15.8203 15.3045 15.894 15.2441 15.9459 15.1666C15.9978 15.089 16.0254 14.9979 16.0255 14.9046V2.84326ZM5.65459 6.61449C5.65459 6.86453 5.55526 7.10434 5.37845 7.28115C5.20164 7.45796 4.96183 7.55729 4.71178 7.55729C4.46173 7.55729 4.22193 7.45796 4.04512 7.28115C3.8683 7.10434 3.76897 6.86453 3.76897 6.61449C3.76897 6.36444 3.8683 6.12463 4.04512 5.94782C4.22193 5.77101 4.46173 5.67168 4.71178 5.67168C4.96183 5.67168 5.20164 5.77101 5.37845 5.94782C5.55526 6.12463 5.65459 6.36444 5.65459 6.61449ZM9.42582 6.61449C9.42582 6.86453 9.32649 7.10434 9.14968 7.28115C8.97287 7.45796 8.73306 7.55729 8.48301 7.55729C8.23296 7.55729 7.99316 7.45796 7.81635 7.28115C7.63953 7.10434 7.5402 6.86453 7.5402 6.61449C7.5402 6.36444 7.63953 6.12463 7.81635 5.94782C7.99316 5.77101 8.23296 5.67168 8.48301 5.67168C8.73306 5.67168 8.97287 5.77101 9.14968 5.94782C9.32649 6.12463 9.42582 6.36444 9.42582 6.61449ZM12.2542 7.55729C12.0042 7.55729 11.7644 7.45796 11.5876 7.28115C11.4108 7.10434 11.3114 6.86453 11.3114 6.61449C11.3114 6.36444 11.4108 6.12463 11.5876 5.94782C11.7644 5.77101 12.0042 5.67168 12.2542 5.67168C12.5043 5.67168 12.7441 5.77101 12.9209 5.94782C13.0977 6.12463 13.197 6.36444 13.197 6.61449C13.197 6.86453 13.0977 7.10434 12.9209 7.28115C12.7441 7.45796 12.5043 7.55729 12.2542 7.55729Z" fill="#3758F9"/>
</g>
<defs>
<clipPath id="clip0_809_1406">
<rect width="15.0849" height="15.0849" fill="white" transform="translate(0.940552 0.957642)"/>
</clipPath>
</defs>
</svg>
