<svg width="142" height="33" viewBox="0 0 142 33" fill="none" xmlns="http://www.w3.org/2000/svg">
<g clip-path="url(#clip0_617_1094)">
<path d="M19.355 6.87841C19.9945 6.22511 20.749 5.69335 21.622 5.28314C22.2292 5.00586 22.8723 4.82734 23.5549 4.74758C24.0363 4.69061 24.392 4.24241 24.392 3.73344V1.01387C24.392 0.42894 23.9249 -0.0458444 23.3717 0.00353315C22.6855 0.0681038 22.0064 0.197245 21.3382 0.390957C20.3933 0.668231 19.4772 1.07845 18.5826 1.6216C17.7132 2.17615 16.9264 2.81806 16.2222 3.55112C15.5073 4.31458 14.9109 5.1426 14.4295 6.0314C13.9265 6.88601 13.5313 7.86217 13.2475 8.95987C12.9744 9.95881 12.8379 11.0413 12.8379 12.2036C12.8379 13.3659 12.9744 14.4332 13.2475 15.4321C13.5205 16.4956 13.9121 17.468 14.4295 18.3454C14.9217 19.2456 15.5216 20.0774 16.2222 20.8409C16.9443 21.5853 17.7347 22.2158 18.5826 22.7362C19.4017 23.268 20.3179 23.6896 21.3382 24.001C22.0064 24.1947 22.6855 24.3239 23.3717 24.3885C23.9213 24.4378 24.392 23.9631 24.392 23.3781V20.6699C24.392 20.1534 24.0363 19.7014 23.5477 19.6444C22.8615 19.5647 22.222 19.3785 21.622 19.0937C20.7634 18.7062 20.0053 18.1669 19.355 17.4794C18.7263 16.8147 18.2233 16.0209 17.8461 15.1017C17.4689 14.2015 17.2785 13.2367 17.2785 12.2074C17.2785 11.1781 17.4689 10.1829 17.8461 9.26373C18.2233 8.34455 18.7263 7.55071 19.355 6.88601V6.87841Z" fill="#0000FF"/>
<path d="M30.1455 10.0576C29.9458 10.2841 29.7095 10.466 29.4399 10.5959C29.1703 10.7259 28.8807 10.7927 28.5811 10.7927C28.2616 10.7927 27.9654 10.7259 27.6991 10.5959C27.4329 10.466 27.1932 10.2878 26.9835 10.0576C26.7739 9.82746 26.6108 9.56387 26.4943 9.25944C26.3778 8.95502 26.3179 8.6246 26.3179 8.2682C26.3179 7.9415 26.3778 7.62965 26.4943 7.32522C26.6108 7.02079 26.7739 6.7572 26.9835 6.52703C27.1932 6.30056 27.4295 6.11865 27.6991 5.98129C27.9687 5.84393 28.2616 5.7771 28.5811 5.7771C28.884 5.7771 29.1703 5.84393 29.4399 5.98129C29.7095 6.11865 29.9491 6.29685 30.1455 6.52703C30.3418 6.7572 30.5049 7.02079 30.6281 7.32522C30.7512 7.62965 30.8111 7.9415 30.8111 8.2682C30.8111 8.6246 30.7512 8.95502 30.6281 9.25944C30.5049 9.56387 30.3452 9.82746 30.1455 10.0576ZM30.1455 17.8725C29.9458 18.0952 29.7095 18.2734 29.4399 18.4108C29.1703 18.5482 28.8807 18.615 28.5811 18.615C28.2616 18.615 27.9654 18.5482 27.6991 18.4108C27.4329 18.2734 27.1932 18.0952 26.9835 17.8725C26.7739 17.6497 26.6108 17.3861 26.4943 17.0743C26.3778 16.7624 26.3179 16.4357 26.3179 16.0905C26.3179 15.7452 26.3778 15.4222 26.4943 15.1215C26.6108 14.8208 26.7739 14.5609 26.9835 14.3345C27.1932 14.108 27.4295 13.9261 27.6991 13.7961C27.9687 13.6662 28.2616 13.5994 28.5811 13.5994C28.884 13.5994 29.1703 13.6662 29.4399 13.7961C29.7095 13.9261 29.9491 14.1043 30.1455 14.3345C30.3418 14.5646 30.5049 14.8245 30.6281 15.1215C30.7512 15.4185 30.8111 15.7415 30.8111 16.0905C30.8111 16.4395 30.7512 16.7662 30.6281 17.0743C30.5049 17.3824 30.3452 17.6497 30.1455 17.8725Z" fill="#FF6417"/>
<path d="M33.3784 22.7538V1.00008C33.3784 0.709984 33.4749 0.469505 33.6641 0.282467C33.8533 0.0954279 34.0908 0 34.3728 0H36.8105C37.0925 0 37.3263 0.0954279 37.5081 0.282467C37.6899 0.469505 37.7826 0.709984 37.7826 1.00008V6.8021C38.15 6.45474 38.6175 6.18373 39.1814 5.98142C39.7454 5.77912 40.3836 5.67987 41.0997 5.67987C42.1831 5.67987 43.1849 5.88599 44.1051 6.29824C45.003 6.68759 45.8156 7.25634 46.5428 8.00449C47.2367 8.7412 47.7821 9.58096 48.1828 10.5276C48.5835 11.4857 48.7839 12.524 48.7839 13.6386V22.75C48.7839 23.0401 48.6911 23.2806 48.5093 23.4676C48.3275 23.6547 48.0863 23.7501 47.7932 23.7501H45.3407C45.0587 23.7501 44.8249 23.6547 44.6431 23.4676C44.4613 23.2806 44.3685 23.0401 44.3685 22.75V14.6425L44.3834 13.6386H44.3982C44.3982 13.1691 44.3129 12.7263 44.1385 12.3026C43.953 11.9018 43.7155 11.5506 43.4224 11.249C43.1181 10.9246 42.7731 10.6765 42.3835 10.4971C42.005 10.3291 41.5746 10.2451 41.0997 10.2451C40.6248 10.2451 40.1907 10.3291 39.8011 10.4971C39.4004 10.6879 39.0479 10.936 38.7436 11.249C38.4394 11.5506 38.2019 11.9018 38.0275 12.3026C37.8643 12.7034 37.7826 13.15 37.7826 13.6386V22.75C37.7826 23.0401 37.6899 23.2806 37.5081 23.4676C37.3263 23.6547 37.0925 23.7501 36.8105 23.7501H34.3728C34.0908 23.7501 33.8571 23.6547 33.6641 23.4676C33.4712 23.2806 33.3784 23.0401 33.3784 22.75V22.7538Z" fill="#0000FF"/>
<path d="M53.323 7.7258C54.1637 6.88422 55.1142 6.24355 56.1746 5.80002C57.3031 5.33374 58.4733 5.11386 59.6927 5.13661C60.9197 5.15935 62.0823 5.3906 63.1767 5.83414C64.2484 6.27767 65.199 6.91454 66.0283 7.74475C66.8577 8.57496 67.4674 9.52648 67.9521 10.7017C68.4369 11.8313 68.683 13.0748 68.683 14.4395V22.7567C68.683 23.0448 68.5883 23.2837 68.4028 23.4694C68.2172 23.6552 67.9786 23.75 67.6908 23.75H65.1535C64.8771 23.75 64.6461 23.6552 64.4567 23.4694C64.2674 23.2837 64.1651 22.8667 64.1424 22.2222V14.4357C64.1424 13.7495 64.025 13.1127 63.794 12.5251C63.563 11.9489 63.2449 11.4447 62.8473 11.0125C62.4496 10.5917 61.9687 10.2581 61.4044 10.0155C60.8515 9.78426 60.2835 9.66295 59.6965 9.65158C59.0981 9.6402 58.5187 9.76151 57.9545 10.0155C57.4129 10.2695 56.9433 10.6031 56.5457 11.0125C56.1254 11.456 55.7997 11.9602 55.5687 12.5251C55.3263 13.0899 55.2051 13.7268 55.2051 14.4357C55.2051 14.7996 55.2316 15.2962 55.2809 15.9217C55.3301 16.5472 55.4172 17.0059 55.5384 17.3016C55.6596 17.5935 55.8754 17.8968 56.1859 18.2077C56.451 18.4844 56.8108 18.7232 57.2652 18.9203C57.7083 19.1099 58.1514 19.2009 58.5907 19.2009H60.9954C61.2832 19.2009 61.5218 19.2956 61.7074 19.4814C61.8929 19.6671 61.9876 19.906 61.9876 20.1941V22.6695C61.9876 22.9577 61.8929 23.1965 61.7074 23.3822C61.5218 23.568 61.2832 23.6628 60.9954 23.6628H58.5907C57.5076 23.6628 56.4965 23.4543 55.5535 23.0335C54.6674 22.6354 53.8266 22.0706 53.0314 21.3389C52.3119 20.6755 51.7552 19.8453 51.3575 18.8483C51.1492 18.329 50.9864 17.7565 50.8766 17.131C50.7668 16.5055 50.71 15.6071 50.71 14.4319C50.71 13.0482 50.9485 11.7859 51.4219 10.6448C51.8991 9.49236 52.5315 8.5181 53.3306 7.72201L53.323 7.7258Z" fill="#0000FF"/>
<path d="M85.9717 21.5767C85.2191 22.3639 84.2773 23.0123 83.1389 23.5146C82.0798 23.9757 80.9073 24.2043 79.6252 24.2043C79.2394 24.2043 78.8234 24.1669 78.3808 24.0881C77.9724 24.0019 77.5563 23.882 77.1365 23.7283C76.7507 23.5971 76.38 23.3984 76.0283 23.136C75.9716 23.1023 75.8468 23.0273 75.6463 22.9074L75.166 22.5775L75.1319 22.5438V31.1127C75.1319 31.3976 75.0374 31.6337 74.852 31.8174C74.6667 32.0011 74.4209 32.0948 74.1221 32.0948H71.622C71.3346 32.0948 71.0963 32.0011 70.8996 31.8174C70.703 31.6337 70.6084 31.3976 70.6084 31.1127L70.6576 14.972C70.6576 13.6151 70.8883 12.3818 71.3535 11.276C71.8376 10.1365 72.4844 9.16942 73.29 8.37101C74.1296 7.53886 75.079 6.90537 76.138 6.46681C77.2537 6.00575 78.4149 5.7771 79.6176 5.7771C80.8204 5.7771 81.9928 6.00201 83.1313 6.45182C84.179 6.89038 85.1245 7.52012 85.9642 8.34102C86.7584 9.12819 87.4014 10.099 87.8855 11.246C88.3507 12.3406 88.5814 13.5813 88.5814 14.972C88.5814 16.3626 88.3507 17.5734 87.8855 18.6679C87.409 19.7737 86.7698 20.7408 85.9642 21.573L85.9717 21.5767ZM82.7758 11.6096C82.3673 11.1823 81.8983 10.8562 81.3688 10.6238C80.8393 10.3727 80.2606 10.2452 79.629 10.2452C78.9973 10.2452 78.4376 10.3727 77.9043 10.6238C77.3634 10.8525 76.8869 11.1823 76.4784 11.6096C76.0926 12.0257 75.7711 12.5243 75.5177 13.1053C75.287 13.6975 75.1697 14.3198 75.1697 14.9757C75.1697 15.568 75.287 16.1565 75.5177 16.7487C75.7598 17.3297 76.0813 17.832 76.4784 18.2593C76.8642 18.6754 77.3407 19.0315 77.9043 19.3276C78.4224 19.5788 78.9973 19.7062 79.629 19.7062C80.2606 19.7062 80.8279 19.59 81.3688 19.3614C81.8983 19.1102 82.3673 18.7766 82.7758 18.3606C83.1729 17.9445 83.4944 17.4459 83.7364 16.8649C83.9785 16.3177 84.0995 15.6879 84.0995 14.9757C84.0995 14.2635 83.9785 13.675 83.7364 13.1053C83.5171 12.558 83.1956 12.0595 82.7758 11.6096Z" fill="#0000FF"/>
<path d="M105.964 21.5767C105.238 22.3639 104.33 23.0123 103.232 23.5146C102.211 23.9757 101.08 24.2043 99.8437 24.2043C99.4717 24.2043 99.0705 24.1669 98.6438 24.0881C98.2499 24.0019 97.8487 23.882 97.4439 23.7283C97.0719 23.5971 96.7144 23.3984 96.3753 23.136C96.3206 23.1023 96.2002 23.0273 96.0069 22.9074L95.5437 22.5775L95.5109 22.5438V31.1127C95.5109 31.3976 95.4197 31.6337 95.241 31.8174C95.0623 32.0011 94.8252 32.0948 94.5371 32.0948H92.1264C91.8492 32.0948 91.6194 32.0011 91.4298 31.8174C91.2401 31.6337 91.1489 31.3976 91.1489 31.1127L91.1963 14.972C91.1963 13.6151 91.4188 12.3818 91.8674 11.276C92.3342 10.1365 92.9579 9.16942 93.7347 8.37101C94.5444 7.53886 95.4598 6.90537 96.481 6.46681C97.5569 6.00575 98.6766 5.7771 99.8364 5.7771C100.996 5.7771 102.127 6.00201 103.225 6.45182C104.235 6.89038 105.147 7.52012 105.956 8.34102C106.722 9.12819 107.342 10.099 107.809 11.246C108.258 12.3406 108.48 13.5813 108.48 14.972C108.48 16.3626 108.258 17.5734 107.809 18.6679C107.349 19.7737 106.733 20.7408 105.956 21.573L105.964 21.5767ZM102.882 11.6096C102.488 11.1823 102.036 10.8562 101.525 10.6238C101.014 10.3727 100.456 10.2452 99.8473 10.2452C99.2383 10.2452 98.6985 10.3727 98.1842 10.6238C97.6627 10.8525 97.2032 11.1823 96.8093 11.6096C96.4373 12.0257 96.1273 12.5243 95.8829 13.1053C95.6604 13.6975 95.5474 14.3198 95.5474 14.9757C95.5474 15.568 95.6604 16.1565 95.8829 16.7487C96.1163 17.3297 96.4263 17.832 96.8093 18.2593C97.1813 18.6754 97.6408 19.0315 98.1842 19.3276C98.6839 19.5788 99.2383 19.7062 99.8473 19.7062C100.456 19.7062 101.003 19.59 101.525 19.3614C102.036 19.1102 102.488 18.7766 102.882 18.3606C103.265 17.9445 103.575 17.4459 103.808 16.8649C104.042 16.3177 104.158 15.6879 104.158 14.9757C104.158 14.2635 104.042 13.675 103.808 13.1053C103.597 12.558 103.287 12.0595 102.882 11.6096Z" fill="#0000FF"/>
<path d="M112.012 5.781H114.425C114.703 5.781 114.933 5.87861 115.112 6.06991C115.291 6.26121 115.382 6.50717 115.382 6.80388V16.4822C115.382 16.9936 115.462 17.4465 115.623 17.833C115.795 18.243 116.028 18.6138 116.328 18.9457C116.616 19.2541 116.956 19.5001 117.35 19.6797C117.745 19.8593 118.154 19.953 118.581 19.953H118.902C119.329 19.953 119.746 19.8632 120.151 19.6797C120.545 19.4962 120.885 19.2502 121.173 18.9457C121.484 18.6138 121.717 18.243 121.878 17.833C122.006 17.4895 122.079 17.1615 122.101 16.8414V8.08443C122.101 7.99464 122.104 7.93217 122.115 7.89704V6.80388C122.115 6.50717 122.21 6.26121 122.397 6.06991C122.583 5.87861 122.809 5.781 123.076 5.781H125.475C125.752 5.781 125.982 5.87861 126.172 6.06991C126.362 6.26121 126.453 6.50717 126.453 6.80388L126.42 22.8615C126.399 23.7751 126.293 24.595 126.099 25.325C125.906 26.0785 125.621 26.8203 125.234 27.5465C124.839 28.2297 124.379 28.8505 123.857 29.4087C123.302 30.0022 122.722 30.4746 122.115 30.8298C121.476 31.2398 120.786 31.5521 120.052 31.7707C119.326 31.9855 118.566 32.0948 117.767 32.0948H116.598C116.321 32.0948 116.091 31.9972 115.901 31.8059C115.711 31.6146 115.619 31.3686 115.619 31.0719V28.4913C115.619 28.1946 115.714 27.9486 115.901 27.7456C116.087 27.5426 116.321 27.445 116.598 27.445L118.022 27.4606C118.628 27.4606 119.169 27.3396 119.636 27.1014C120.125 26.8515 120.56 26.508 120.932 26.0746C121.305 25.653 121.59 25.1611 121.779 24.6028C121.929 24.2163 122.024 23.8571 122.068 23.5252L121.812 23.6463C120.929 24.0562 119.957 24.2631 118.902 24.2631H118.614C117.558 24.2631 116.583 24.0562 115.685 23.6463C114.758 23.2129 113.951 22.6312 113.272 21.9011C112.6 21.1828 112.056 20.316 111.639 19.301C111.245 18.2859 111.048 17.2318 111.048 16.1386V6.79998C111.048 6.50327 111.143 6.25731 111.329 6.066C111.515 5.8747 111.742 5.7771 112.008 5.7771L112.012 5.781Z" fill="#0000FF"/>
<path d="M10.1629 0H7.44411C6.95458 0 6.50028 0.27279 6.24319 0.719863L0.277338 11.1389C-0.092446 11.7868 -0.092446 12.6052 0.277338 13.2531L6.23614 23.6721C6.49323 24.1192 6.94402 24.392 7.43354 24.392H10.1523C10.7405 24.392 11.0997 23.6987 10.7898 23.1644L4.82744 12.7264C4.64079 12.4006 4.64079 11.9952 4.82744 11.6694L10.8003 1.23134C11.1067 0.693342 10.7475 0 10.1629 0Z" fill="#FF6417"/>
<path d="M130.458 0H133.337C133.856 0 134.333 0.27279 134.606 0.719863L140.923 11.1389C141.315 11.7868 141.315 12.6052 140.923 13.2531L134.613 23.6721C134.341 24.1192 133.863 24.392 133.345 24.392H130.466C129.843 24.392 129.462 23.6987 129.791 23.1644L136.105 12.7264C136.303 12.4006 136.303 11.9952 136.105 11.6694L129.779 1.23134C129.459 0.693342 129.839 0 130.458 0Z" fill="#FF6417"/>
</g>
<defs>
<clipPath id="clip0_617_1094">
<rect width="141.217" height="32.0947" fill="white"/>
</clipPath>
</defs>
</svg>
